<?xml version="1.0" encoding="UTF-8" standalone="no"?>
<!-- Created with Inkscape (http://www.inkscape.org/) -->

<svg
   version="1.1"
   id="svg46"
   width="160"
   height="160"
   viewBox="0 0 160 160"
   sodipodi:docname="hopfen_faint.svg"
   inkscape:version="1.3 (0e150ed6c4, 2023-07-21)"
   xmlns:inkscape="http://www.inkscape.org/namespaces/inkscape"
   xmlns:sodipodi="http://sodipodi.sourceforge.net/DTD/sodipodi-0.dtd"
   xmlns="http://www.w3.org/2000/svg"
   xmlns:svg="http://www.w3.org/2000/svg">
  <defs
     id="defs50" />
  <sodipodi:namedview
     id="namedview48"
     pagecolor="#ffffff"
     bordercolor="#000000"
     borderopacity="0.25"
     inkscape:showpageshadow="2"
     inkscape:pageopacity="0.0"
     inkscape:pagecheckerboard="0"
     inkscape:deskcolor="#d1d1d1"
     showgrid="false"
     inkscape:zoom="3.663697"
     inkscape:cx="14.73921"
     inkscape:cy="73.150154"
     inkscape:window-width="1920"
     inkscape:window-height="1004"
     inkscape:window-x="0"
     inkscape:window-y="0"
     inkscape:window-maximized="1"
     inkscape:current-layer="g52" />
  <g
     inkscape:groupmode="layer"
     inkscape:label="Image"
     id="g52">
    <path
       style="fill:#d8dee9;stroke-width:0.653276;fill-opacity:1"
       d="m 73.638162,147.74435 c -4.682315,-4.97138 -4.812798,-5.05452 -6.754742,-4.30355 -1.750034,0.67678 -2.254813,0.57082 -4.342865,-0.91171 -4.395283,-3.12066 -8.807193,-10.04124 -10.360925,-16.2523 -0.882091,-3.52616 -1.576382,-3.85109 -4.477304,-2.09545 -1.820311,1.10167 -1.90994,1.0839 -4.617427,-0.9157 -3.377361,-2.49431 -7.6269,-8.68351 -9.522453,-13.86885 -0.776431,-2.12398 -1.72816,-6.49034 -2.114951,-9.703034 -0.6853,-5.692119 -0.743556,-5.833378 -2.28132,-5.532203 -1.202413,0.235494 -2.190407,-0.318295 -4.150416,-2.326386 -6.213642,-6.366072 -8.269957,-17.596468 -5.270559,-28.784781 0.452222,-1.686888 -0.828103,-2.005765 -3.084929,-0.768321 -1.229667,0.674239 -1.283449,0.580721 -0.85566,-1.48779 0.251064,-1.213987 1.178777,-4.290161 2.061576,-6.835933 0.882807,-2.545773 2.597117,-7.701558 3.809592,-11.457301 3.482453,-10.787244 6.419227,-14.480889 15.068595,-18.95214 5.331296,-2.755981 16.913605,-5.491184 26.982969,-6.372114 5.425475,-0.474659 9.256461,-1.117026 9.870786,-1.655104 0.552189,-0.483654 1.378446,-2.376315 1.83613,-4.205905 1.899696,-7.5940607 8.819166,-7.0189269 10.089449,0.838623 0.783923,4.849069 0.698342,4.799278 9.784946,5.692823 9.661596,0.950091 17.518436,2.59288 23.543066,4.922637 5.3803,2.0806 7.15833,3.205128 11.07441,7.004175 3.64872,3.539682 4.86455,5.758882 7.09114,12.943231 0.90172,2.909455 2.81628,8.637443 4.2546,12.728864 1.43831,4.091419 2.40284,7.471882 2.14337,7.512138 -0.25946,0.04028 -1.16236,0.01404 -2.00645,-0.05839 -1.4589,-0.125102 -1.50671,-0.006 -0.96811,2.406455 0.31161,1.395931 0.56657,5.216069 0.56657,8.489205 0,7.722764 -1.875,13.126944 -6.11996,17.639051 -2.36499,2.513828 -3.25534,3.061651 -4.45403,2.740508 -1.82731,-0.489575 -2.63337,0.618628 -2.64696,3.639092 -0.0142,3.22606 -2.97191,11.71102 -5.31071,15.23668 -2.41499,3.64053 -5.76031,7.03342 -8.21932,8.33622 -1.55461,0.82365 -1.9546,0.81423 -3.19413,-0.0753 -1.99614,-1.43244 -3.04646,-0.76231 -3.51552,2.24303 -0.59626,3.82017 -4.4927,11.34783 -7.659231,14.79698 -3.874879,4.22076 -5.431215,5.16139 -7.869098,4.75607 -1.833097,-0.30477 -2.255051,-0.0506 -3.863608,2.32751 -2.047419,3.02688 -7.192076,7.37826 -8.723383,7.37826 -0.560225,0 -3.167139,-2.2812 -5.793138,-5.06931 z m 8.185796,0.86844 c 1.132128,-0.85574 3.052923,-2.84349 4.268438,-4.41722 l 2.21002,-2.8613 -2.153135,-2.6921 c -1.184225,-1.48063 -2.899884,-4.03064 -3.812571,-5.66668 l -1.659432,-2.9746 -0.0076,7.43894 c -0.0064,6.16802 -0.17317,7.43895 -0.975886,7.43895 -0.802874,0 -0.968111,-1.26305 -0.968111,-7.40003 v -7.40007 l -2.304379,3.92855 c -1.267412,2.16069 -2.864793,4.54283 -3.549738,5.29362 -0.68497,0.75082 -1.245383,1.70092 -1.245383,2.11134 0,0.82194 6.967275,8.75651 7.689009,8.75651 0.247778,0 1.376788,-0.70018 2.508914,-1.55591 z M 69.087672,138.49156 c 3.42008,-3.27757 7.446823,-10.63597 8.104842,-14.81063 0.347041,-2.20175 0.104394,-2.62556 -3.785725,-6.6124 -2.768096,-2.83692 -4.783777,-5.6611 -6.034318,-8.45473 l -1.877798,-4.19486 -0.807088,4.52549 c -0.443899,2.48901 -0.994346,8.91445 -1.22322,14.27876 -0.34255,8.02885 -0.586902,9.75327 -1.38201,9.75327 -0.827237,0 -0.913779,-1.25761 -0.602886,-8.76143 0.199651,-4.81876 0.972518,-12.25746 1.717485,-16.53039 1.346215,-7.721574 1.27589,-11.267461 -0.211875,-10.682548 -0.427743,0.168161 -1.271889,2.984001 -1.875886,6.257408 -1.115375,6.04486 -3.138885,11.03695 -6.124801,15.11016 -1.556399,2.12314 -1.611316,2.45792 -0.940622,5.73392 1.053685,5.14672 3.949038,10.70287 7.447843,14.29235 1.70303,1.74715 3.385464,3.17664 3.738738,3.17664 0.353278,0 2.089074,-1.38644 3.857321,-3.08101 z m 28.321217,-0.85309 c 3.878181,-3.87013 7.503401,-11.10432 8.126961,-16.21752 0.39675,-3.25343 0.26976,-3.72507 -1.85534,-6.89019 -2.72271,-4.05523 -4.906143,-9.76592 -5.414158,-14.16059 -0.380366,-3.290351 -2.233268,-6.500892 -3.188773,-5.525177 -0.814182,0.831411 -0.569208,5.929357 0.656661,13.665617 1.352893,8.53796 2.160297,23.14338 1.279377,23.14338 -0.343679,0 -0.990537,-4.2402 -1.437482,-9.42266 -0.446944,-5.18247 -1.153805,-11.43486 -1.570799,-13.89419 l -0.758171,-4.47154 -2.141257,4.57887 c -1.457491,3.1167 -3.363324,5.77314 -5.968225,8.31874 l -3.826976,3.73987 0.730122,3.0958 c 1.131005,4.79563 4.925084,11.71257 8.036159,14.6506 1.550246,1.46402 3.096197,2.66186 3.435439,2.66186 0.339242,0 2.092651,-1.47278 3.896462,-3.27287 z M 50.064896,118.97385 c 5.175206,-5.01457 8.653006,-13.4377 8.653006,-20.957319 0,-2.062731 -0.512943,-3.04259 -2.965618,-5.665141 -2.930785,-3.133774 -7.360889,-11.428524 -7.360889,-13.782244 0,-0.668165 -0.253884,-1.054083 -0.564195,-0.857602 -0.891882,0.564737 -2.156943,12.512545 -2.252709,21.27562 -0.05336,4.881736 -0.338968,7.974256 -0.732833,7.934866 -0.790539,-0.0791 -0.874494,-16.73837 -0.115104,-22.840521 l 0.530298,-4.261292 -2.985026,4.068376 c -1.64176,2.237602 -4.121172,4.990289 -5.509797,6.117089 -3.128172,2.538333 -3.682762,5.006386 -2.664658,11.858268 0.940176,6.32745 4.314814,13.51046 8.233536,17.52531 1.614452,1.65406 3.220257,3.00738 3.568454,3.00738 0.348197,0 2.222689,-1.54026 4.16554,-3.42279 z m 67.118024,-3.02047 c 4.07802,-4.17807 7.14679,-10.89711 8.08482,-17.701641 l 0.73059,-5.299568 -4.82519,-4.949643 c -2.65384,-2.722303 -5.46203,-6.139873 -6.24044,-7.594602 l -1.41525,-2.644958 0.34954,4.298059 c 1.1442,14.068328 1.69003,25.013813 1.34215,26.913593 -0.75536,4.1253 -1.63167,2.19584 -1.6372,-3.60491 -0.006,-5.936157 -0.94925,-19.182372 -1.66036,-23.308683 l -0.39887,-2.31434 -1.93594,3.910808 c -1.06475,2.150941 -3.50453,5.517874 -5.42169,7.482066 -2.51161,2.573255 -3.48574,4.074753 -3.48574,5.372936 0,2.847787 1.82116,9.365083 3.67645,13.156773 1.97319,4.03269 6.89152,9.42118 8.59912,9.42118 0.64684,0 2.55394,-1.41169 4.23801,-3.13707 z m -35.514601,0.0866 c 5.007142,-3.91282 9.965329,-14.47624 9.965329,-21.231136 0,-2.368899 -0.466064,-3.633132 -2.264954,-6.143833 -3.085902,-4.306957 -5.285915,-9.626783 -6.204684,-15.003479 -0.422425,-2.472065 -1.158252,-4.930376 -1.635164,-5.462912 -0.727832,-0.81271 -0.867116,1.869272 -0.867116,16.696301 0,15.260989 -0.131723,17.664539 -0.968111,17.664539 -0.834283,0 -0.977189,-2.39935 -1.033799,-17.357531 C 78.59444,67.922922 78.59,67.869819 77.680649,73.464925 c -1.090661,6.710701 -4.123917,13.603451 -7.901346,17.954937 -1.833473,2.112106 -2.671114,3.681516 -2.671114,5.004587 0,2.44911 1.695542,8.340101 3.369501,11.707041 1.357399,2.7302 7.366408,9.63649 8.384504,9.63649 0.327163,0 1.58992,-0.77761 2.806125,-1.728 z M 68.04077,88.53673 c 4.203062,-5.03079 6.790731,-12.322975 6.80464,-19.175831 0.0071,-3.482696 -0.189286,-3.99193 -2.548881,-6.610034 -2.697225,-2.992731 -6.010647,-9.315769 -6.773142,-12.925272 -0.496945,-2.352419 -1.363389,-2.806413 -1.892971,-0.991859 -0.945276,3.23889 -2.330887,16.911865 -2.330887,23.000811 0,5.71054 -0.169238,6.920283 -0.968111,6.920283 -1.301371,0 -1.297841,-9.515861 0.0073,-19.50657 0.522581,-4.0005 0.952556,-7.492082 0.955505,-7.759079 0.0033,-0.266995 -1.936502,0.848848 -4.309897,2.479649 -2.373392,1.630803 -4.522673,2.965092 -4.776176,2.965092 -0.939868,0 -2.148372,7.110745 -2.079044,12.232932 0.120673,8.915224 3.514829,17.109556 9.307927,22.471668 l 2.564448,2.373664 1.875518,-1.368249 c 1.031542,-0.752537 2.905261,-2.600781 4.16383,-4.107205 z m 35.51852,-1.347803 c 4.82942,-5.780491 6.96402,-12.720288 6.65782,-21.64506 l -0.1894,-5.519347 -5.22927,-2.705771 c -2.87612,-1.488173 -5.762239,-3.150624 -6.413576,-3.694328 -1.087146,-0.907491 -1.142914,-0.88011 -0.680158,0.333921 1.500167,3.935531 3.697114,14.609382 4.047304,19.663766 0.33924,4.896629 0.25121,5.793959 -0.56852,5.793959 -0.76575,0 -1.04963,-1.287466 -1.348631,-6.116466 C 99.440911,66.937793 97.934512,60.03592 95.483863,53.36489 l -1.432582,-3.899646 -2.156445,4.769847 c -1.186055,2.623413 -3.036971,5.908871 -4.113161,7.301003 -1.720287,2.225323 -1.954808,3.038971 -1.940931,6.734051 0.03124,8.320841 2.767943,15.300436 8.211949,20.943443 l 3.391754,3.515746 1.902679,-1.388068 c 1.046484,-0.763435 2.941944,-2.631984 4.212144,-4.152339 z M 36.757991,85.367223 c 6.033527,-6.124632 9.146245,-12.987466 10.675084,-23.536151 l 0.392352,-2.7071 -5.637236,0.06216 -5.637228,0.06215 -0.589412,-2.295739 c -0.731891,-2.850703 -1.01343,-2.401713 -3.767128,6.007694 -1.342602,4.100109 -2.145991,8.058145 -2.367082,11.661868 -0.244712,3.988591 -0.570506,5.455227 -1.211828,5.455227 -2.137419,0 -0.502906,-11.813946 2.863366,-20.695849 l 1.92146,-5.069765 -5.103398,2.798903 c -4.983973,2.733399 -5.12946,2.884016 -6.216627,6.435719 -0.746026,2.437216 -1.099257,5.708853 -1.070885,9.918595 0.04982,7.393631 1.558959,12.176251 5.087526,16.123045 l 2.233773,2.49854 2.096565,-1.210604 c 1.153117,-0.665835 4.001921,-3.144736 6.330698,-5.508668 z m 99.914639,-0.641092 c 1.59854,-3.33471 1.753,-4.327059 1.753,-11.261221 0,-10.918131 -0.2793,-11.475484 -7.86831,-15.701504 -3.42584,-1.907716 -6.2986,-3.395505 -6.38394,-3.306198 -0.0853,0.08931 0.56009,1.94772 1.43428,4.12981 2.00335,5.000685 4.56501,14.95908 4.83493,18.795743 0.29068,4.131518 -1.16105,4.346851 -1.71589,0.254511 -0.71128,-5.24591 -2.86369,-13.448225 -4.91235,-18.719634 -2.46338,-6.338589 -3.13739,-7.034664 -3.13739,-3.240073 0,3.747905 -0.80637,4.562553 -4.51618,4.562553 h -2.96718 l 0.23829,4.463367 c 0.38294,7.171766 1.84709,10.961481 6.89089,17.835815 1.76134,2.400586 4.61981,5.1931 6.94196,6.781819 l 3.94766,2.700828 1.85359,-1.81942 c 1.01949,-1.000688 2.64246,-3.465062 3.60664,-5.476396 z M 83.647292,61.235007 c 8.380054,-8.58565 10.746518,-22.249557 6.051668,-34.94235 -1.240253,-3.353114 -1.610244,-3.811002 -2.812405,-3.480541 -0.761354,0.209289 -2.467731,0.38459 -3.791965,0.389555 l -2.407689,0.0091 -0.173937,14.327285 C 80.382531,48.282693 80.137293,51.934124 79.532268,52.140425 78.903115,52.354952 78.725509,49.200924 78.725509,37.813136 V 23.210732 l -1.452164,-0.0073 c -0.798691,-0.0039 -2.495169,-0.184053 -3.769956,-0.400096 -2.299972,-0.389801 -2.328383,-0.365592 -3.694813,3.148168 -3.997751,10.280179 -3.424055,21.487048 1.540569,30.094179 2.12866,3.690445 6.86794,8.823127 8.146873,8.823127 0.332465,0 2.200537,-1.635207 4.151274,-3.633789 z m 56.058288,-3.474538 c -0.25942,-0.636444 -1.98944,-5.688764 -3.84445,-11.227381 -1.85501,-5.538614 -4.17943,-11.262762 -5.16535,-12.720333 -3.71819,-5.496989 -13.30851,-10.124167 -25.18356,-12.150687 -3.19349,-0.544974 -5.882181,-0.913191 -5.974841,-0.818251 -0.09257,0.09495 2.282581,1.707174 5.278341,3.582735 9.06961,5.678242 23.6061,18.227654 23.6061,20.379245 0,0.487878 -0.17102,0.887049 -0.38033,0.887049 -0.20916,0 -3.04087,-2.552457 -6.29271,-5.672135 -3.25182,-3.119668 -6.46437,-5.980904 -7.13897,-6.358301 -1.11774,-0.625267 -1.10389,-0.509598 0.15611,1.303206 1.88701,2.7151 5.26456,10.131928 5.26518,11.56199 5.9e-4,1.322019 4.4687,4.429229 13.23134,9.201297 6.42413,3.498538 7.13214,3.721772 6.4432,2.031566 z M 25.866662,54.89016 c 8.725383,-4.841333 10.262006,-5.882532 10.262006,-6.953425 0,-2.029395 2.685504,-8.637328 4.897281,-12.050233 1.775798,-2.740155 1.991376,-3.342155 0.922023,-2.574779 -1.73173,1.242705 -6.6891,7.148806 -8.199984,9.769271 -1.163514,2.017997 -1.803588,2.37731 -2.418635,1.357732 -0.506974,-0.840429 4.601853,-7.649015 9.078839,-12.099444 2.08343,-2.071075 6.681263,-5.567379 10.217402,-7.769565 3.53613,-2.202193 5.859594,-3.997537 5.163253,-3.989669 -3.274905,0.03703 -13.373074,2.880757 -17.72396,4.99123 -4.753581,2.305809 -7.95134,4.865368 -10.365683,8.296928 -1.432009,2.035356 -9.129342,24.388193 -8.398213,24.388193 0.27435,0 3.228899,-1.514807 6.565671,-3.366239 z m 19.597841,1.030139 c 5.313498,-1.417944 9.628388,-3.968014 14.356942,-8.484862 3.921315,-3.745739 4.05971,-3.989015 4.05971,-7.136198 0,-3.982679 1.708114,-12.734848 2.97541,-15.245645 1.920409,-3.804761 -0.754817,-1.710516 -9.893691,7.745079 -5.09675,5.273385 -9.400801,9.587975 -9.56456,9.587975 -2.040557,0 8.353906,-12.067386 16.067916,-18.653941 3.24988,-2.774892 3.52152,-3.168236 1.93622,-2.803749 -1.014199,0.23318 -3.98942,1.441767 -6.611597,2.685751 -10.050079,4.767836 -19.143802,17.123572 -19.923068,27.069675 -0.527975,6.738859 -0.152396,7.03696 6.596718,5.235915 z M 117.97261,54.12898 c 0.28144,-3.481737 -1.47926,-9.983779 -3.88107,-14.33227 -3.09041,-5.595212 -10.94522,-13.316546 -16.096097,-15.822565 -2.358075,-1.147257 -4.520571,-2.085927 -4.805538,-2.085927 -0.284968,0 3.459582,4.040088 8.321215,8.977976 7.75858,7.880262 10.05299,10.859213 8.36392,10.859213 -0.26148,0 -4.33715,-3.942641 -9.05705,-8.761424 -8.358181,-8.533266 -8.553719,-8.683934 -7.509108,-5.785848 0.681811,1.891523 1.184059,5.866398 1.378568,10.910454 0.301345,7.813849 0.337003,7.968215 2.3372,10.12088 4.61174,4.963274 12.69026,8.835592 17.84364,8.553064 2.85691,-0.156631 2.90759,-0.199634 3.10432,-2.633553 z M 84.032747,20.144211 86.435661,19.737239 85.194944,18.121229 C 84.512555,17.23243 83.759735,15.176405 83.522018,13.552295 82.573663,7.0730844 79.095063,6.3105036 77.631622,12.260999 c -1.009428,4.10442 -2.479374,6.321021 -4.191811,6.321021 -1.873836,0 -1.064257,0.699096 1.541856,1.331445 2.728586,0.662067 6.010434,0.745734 9.05108,0.230746 z"
       id="path214" />
  </g>
</svg>
