<?xml version="1.0" encoding="UTF-8" standalone="no"?>
<svg
   fill="none"
   height="100%"
   width="100%"
   viewBox="0 0 512 512"
   version="1.1"
   id="svg27"
   sodipodi:docname="md.obsidian.Obsidian.svg"
   inkscape:version="1.3 (0e150ed6c4, 2023-07-21)"
   inkscape:export-filename="md.obsidian.Obsidian.png"
   inkscape:export-xdpi="96"
   inkscape:export-ydpi="96"
   xmlns:inkscape="http://www.inkscape.org/namespaces/inkscape"
   xmlns:sodipodi="http://sodipodi.sourceforge.net/DTD/sodipodi-0.dtd"
   xmlns="http://www.w3.org/2000/svg"
   xmlns:svg="http://www.w3.org/2000/svg">
  <defs
     id="defs27">
    <clipPath
       clipPathUnits="userSpaceOnUse"
       id="clipPath28">
      <g
         id="g29">
        <path
           d="m 0.2,0.2 h 512 v 512 H 0.2 Z"
           id="path28" />
      </g>
    </clipPath>
    <clipPath
       clipPathUnits="userSpaceOnUse"
       id="clipPath29">
      <g
         id="g30">
        <path
           d="m 0.2,0.2 h 512 v 512 H 0.2 Z"
           id="path29" />
      </g>
    </clipPath>
    <clipPath
       clipPathUnits="userSpaceOnUse"
       id="clipPath30">
      <g
         id="g31">
        <path
           d="m 0.2,0.2 h 512 v 512 H 0.2 Z"
           id="path30" />
      </g>
    </clipPath>
    <clipPath
       clipPathUnits="userSpaceOnUse"
       id="clipPath31">
      <g
         id="g32">
        <path
           d="m 0.2,0.2 h 512 v 512 H 0.2 Z"
           id="path31" />
      </g>
    </clipPath>
    <clipPath
       clipPathUnits="userSpaceOnUse"
       id="clipPath32">
      <g
         id="g33">
        <path
           d="m 0.2,0.2 h 512 v 512 H 0.2 Z"
           id="path32" />
      </g>
    </clipPath>
    <clipPath
       clipPathUnits="userSpaceOnUse"
       id="clipPath33">
      <g
         id="g34">
        <path
           d="m 0.2,0.2 h 512 v 512 H 0.2 Z"
           id="path33" />
      </g>
    </clipPath>
  </defs>
  <sodipodi:namedview
     id="namedview27"
     pagecolor="#ffffff"
     bordercolor="#000000"
     borderopacity="0.25"
     inkscape:showpageshadow="2"
     inkscape:pageopacity="0.0"
     inkscape:pagecheckerboard="0"
     inkscape:deskcolor="#d1d1d1"
     inkscape:zoom="1.578125"
     inkscape:cx="256.31683"
     inkscape:cy="256"
     inkscape:window-width="1240"
     inkscape:window-height="1004"
     inkscape:window-x="680"
     inkscape:window-y="0"
     inkscape:window-maximized="0"
     inkscape:current-layer="svg27" />
  <radialGradient
     id="logo-bottom-left"
     cx="0"
     cy="0"
     gradientTransform="matrix(-59,-225,150,-39,161.4,470)"
     gradientUnits="userSpaceOnUse"
     r="1">
    <stop
       offset="0"
       stop-color="#fff"
       stop-opacity=".4"
       id="stop1" />
    <stop
       offset="1"
       stop-opacity=".1"
       id="stop2" />
  </radialGradient>
  <radialGradient
     id="logo-top-right"
     cx="0"
     cy="0"
     gradientTransform="matrix(50,-379,280,37,360,374.2)"
     gradientUnits="userSpaceOnUse"
     r="1">
    <stop
       offset="0"
       stop-color="#fff"
       stop-opacity=".6"
       id="stop3" />
    <stop
       offset="1"
       stop-color="#fff"
       stop-opacity=".1"
       id="stop4" />
  </radialGradient>
  <radialGradient
     id="logo-top-left"
     cx="0"
     cy="0"
     gradientTransform="matrix(69,-319,218,47,175.4,307)"
     gradientUnits="userSpaceOnUse"
     r="1">
    <stop
       offset="0"
       stop-color="#fff"
       stop-opacity=".8"
       id="stop5" />
    <stop
       offset="1"
       stop-color="#fff"
       stop-opacity=".4"
       id="stop6" />
  </radialGradient>
  <radialGradient
     id="logo-bottom-right"
     cx="0"
     cy="0"
     gradientTransform="matrix(-96,-163,187,-111,335.3,512.2)"
     gradientUnits="userSpaceOnUse"
     r="1">
    <stop
       offset="0"
       stop-color="#fff"
       stop-opacity=".3"
       id="stop7" />
    <stop
       offset="1"
       stop-opacity=".3"
       id="stop8" />
  </radialGradient>
  <radialGradient
     id="logo-top-edge"
     cx="0"
     cy="0"
     gradientTransform="matrix(-36,166,-112,-24,310,128.2)"
     gradientUnits="userSpaceOnUse"
     r="1">
    <stop
       offset="0"
       stop-color="#fff"
       stop-opacity="0"
       id="stop9" />
    <stop
       offset="1"
       stop-color="#fff"
       stop-opacity=".2"
       id="stop10" />
  </radialGradient>
  <radialGradient
     id="logo-left-edge"
     cx="0"
     cy="0"
     gradientTransform="matrix(88,89,-190,187,111,220.2)"
     gradientUnits="userSpaceOnUse"
     r="1">
    <stop
       offset="0"
       stop-color="#fff"
       stop-opacity=".2"
       id="stop11" />
    <stop
       offset="1"
       stop-color="#fff"
       stop-opacity=".4"
       id="stop12" />
  </radialGradient>
  <radialGradient
     id="logo-bottom-edge"
     cx="0"
     cy="0"
     gradientTransform="matrix(9,130,-276,20,215,284)"
     gradientUnits="userSpaceOnUse"
     r="1">
    <stop
       offset="0"
       stop-color="#fff"
       stop-opacity=".2"
       id="stop13" />
    <stop
       offset="1"
       stop-color="#fff"
       stop-opacity=".3"
       id="stop14" />
  </radialGradient>
  <radialGradient
     id="logo-middle-edge"
     cx="0"
     cy="0"
     gradientTransform="matrix(-198,-104,327,-623,400,399.2)"
     gradientUnits="userSpaceOnUse"
     r="1">
    <stop
       offset="0"
       stop-color="#fff"
       stop-opacity=".2"
       id="stop15" />
    <stop
       offset=".5"
       stop-color="#fff"
       stop-opacity=".2"
       id="stop16" />
    <stop
       offset="1"
       stop-color="#fff"
       stop-opacity=".3"
       id="stop17" />
  </radialGradient>
  <g
     id="g35">
    <path
       d="m 382.3,475.6 c -3.1,23.4 -26,41.6 -48.7,35.3 C 301.2,502 263.7,488.1 230,485.5 l -51.7,-4 a 34,34 0 0 1 -22,-10.2 l -89,-91.7 a 34,34 0 0 1 -6.7,-37.7 c 0,0 55,-121 57.1,-127.3 2,-6.3 9.6,-61.2 14,-90.6 1.2,-7.9 5,-15 11,-20.3 L 248,8.9 a 34.1,34.1 0 0 1 49.6,4.3 L 386,125.6 a 37,37 0 0 1 7.6,22.4 c 0,21.3 1.8,65 13.6,93.2 11.5,27.3 32.5,57 43.5,71.5 a 17.3,17.3 0 0 1 1.3,19.2 1494,1494 0 0 1 -44.8,70.6 c -15,22.3 -21.9,49.9 -25,73.1 z"
       fill="#6c31e3"
       id="path18"
       clip-path="url(#clipPath33)"
       style="fill:#b48ead;fill-opacity:1" />
    <path
       d="m 165.9,478.3 c 41.4,-84 40.2,-144.2 22.6,-187 -16.2,-39.6 -46.3,-64.5 -70,-80 -0.6,2.3 -1.3,4.4 -2.2,6.5 L 60.6,342 a 34,34 0 0 0 6.6,37.7 l 89.1,91.7 a 34,34 0 0 0 9.6,7 z"
       fill="url(#logo-bottom-left)"
       id="path19"
       style="fill:url(#logo-bottom-left)"
       clip-path="url(#clipPath32)" />
    <path
       d="m 278.4,307.8 c 11.2,1.2 22.2,3.6 32.8,7.6 34,12.7 65,41.2 90.5,96.3 1.8,-3.1 3.6,-6.2 5.6,-9.2 a 1536,1536 0 0 0 44.8,-70.6 17,17 0 0 0 -1.3,-19.2 c -11,-14.6 -32,-44.2 -43.5,-71.5 -11.8,-28.2 -13.5,-72 -13.6,-93.2 0,-8.1 -2.6,-16 -7.6,-22.4 L 297.6,13.2 a 34,34 0 0 0 -1.5,-1.7 96,96 0 0 1 2,54 198.3,198.3 0 0 1 -17.6,41.3 l -7.2,14.2 a 171,171 0 0 0 -19.4,71 c -1.2,29.4 4.8,66.4 24.5,115.8 z"
       fill="url(#logo-top-right)"
       id="path20"
       style="fill:url(#logo-top-right)"
       clip-path="url(#clipPath31)"
       transform="translate(0.49249691,-0.24822092)" />
    <path
       d="M 278.4,307.8 C 258.7,258.4 252.6,221.4 253.9,191.9 a 171,171 0 0 1 19.4,-71 c 2.3,-4.8 4.8,-9.5 7.2,-14.1 7.1,-13.9 14,-27 17.6,-41.4 a 96,96 0 0 0 -2,-54 A 34.1,34.1 0 0 0 248,9 l -105.4,94.8 a 34.1,34.1 0 0 0 -10.9,20.3 l -12.8,85 -0.5,2.3 c 23.8,15.5 54,40.4 70.1,80 a 147,147 0 0 1 7.8,24.8 c 28,-6.8 55.7,-11 82.1,-8.3 z"
       fill="url(#logo-top-left)"
       id="path21"
       style="fill:url(#logo-top-left)"
       clip-path="url(#clipPath30)" />
    <path
       d="m 333.6,511 c 22.7,6.2 45.6,-12 48.7,-35.4 a 187,187 0 0 1 19.4,-63.9 c -25.6,-55 -56.5,-83.6 -90.4,-96.3 -36,-13.4 -75.2,-9 -115,0.7 8.9,40.4 3.6,93.3 -30.4,162.2 4,1.8 8.1,3 12.5,3.3 0,0 24.4,2 53.6,4.1 29,2 72.4,17.1 101.6,25.2 z"
       fill="url(#logo-bottom-right)"
       id="path22"
       style="fill:url(#logo-bottom-right)"
       clip-path="url(#clipPath29)" />
    <g
       clip-rule="evenodd"
       fill-rule="evenodd"
       id="g26"
       clip-path="url(#clipPath28)">
      <path
         d="m 254.1,190 c -1.3,29.2 2.4,62.8 22.1,112.1 L 270,301.6 C 252.3,250.1 248.5,223.6 249.8,194 a 174.7,174.7 0 0 1 20.4,-72 c 2.4,-4.9 8,-14.1 10.5,-18.8 7.1,-13.7 11.9,-21 16,-33.6 5.7,-17.5 4.5,-25.9 3.8,-34.1 4.6,29.9 -12.7,56 -25.7,82.4 a 177.1,177.1 0 0 0 -20.7,72 z"
         fill="url(#logo-top-edge)"
         id="path23"
         style="fill:url(#logo-top-edge)" />
      <path
         d="m 194.3,293.4 c 2.4,5.4 4.6,9.8 6,16.5 L 195,311 c -2.1,-7.8 -3.8,-13.4 -6.8,-20 -17.8,-42 -46.3,-63.6 -69.7,-79.5 28.2,15.2 57.2,39 75.7,81.9 z"
         fill="url(#logo-left-edge)"
         id="path24"
         style="fill:url(#logo-left-edge)" />
      <path
         d="m 200.6,315.1 c 9.8,46 -1.2,104.2 -33.6,160.9 27.1,-56.2 40.2,-110.1 29.3,-160 z"
         fill="url(#logo-bottom-edge)"
         id="path25"
         style="fill:url(#logo-bottom-edge)" />
      <path
         d="m 312.5,311 c 53.1,19.9 73.6,63.6 88.9,100 -19,-38.1 -45.2,-80.3 -90.8,-96 -34.8,-11.8 -64.1,-10.4 -114.3,1 l -1.1,-5 c 53.2,-12.1 81,-13.5 117.3,0 z"
         fill="url(#logo-middle-edge)"
         id="path26"
         style="fill:url(#logo-middle-edge)" />
    </g>
  </g>
</svg>
