<?xml version="1.0" encoding="UTF-8" standalone="no"?>
<svg
   height="48"
   width="48"
   version="1.1"
   id="svg13"
   sodipodi:docname="sublime-text.svg"
   inkscape:version="1.3 (0e150ed6c4, 2023-07-21)"
   xmlns:inkscape="http://www.inkscape.org/namespaces/inkscape"
   xmlns:sodipodi="http://sodipodi.sourceforge.net/DTD/sodipodi-0.dtd"
   xmlns="http://www.w3.org/2000/svg"
   xmlns:svg="http://www.w3.org/2000/svg">
  <defs
     id="defs13" />
  <sodipodi:namedview
     id="namedview13"
     pagecolor="#ffffff"
     bordercolor="#000000"
     borderopacity="0.25"
     inkscape:showpageshadow="2"
     inkscape:pageopacity="0.0"
     inkscape:pagecheckerboard="0"
     inkscape:deskcolor="#d1d1d1"
     inkscape:zoom="16.833333"
     inkscape:cx="23.970297"
     inkscape:cy="24"
     inkscape:window-width="1289"
     inkscape:window-height="1004"
     inkscape:window-x="631"
     inkscape:window-y="0"
     inkscape:window-maximized="0"
     inkscape:current-layer="svg13" />
  <linearGradient
     id="a"
     gradientUnits="userSpaceOnUse"
     x1="23.000000075"
     x2="37.000000145"
     y1="19.999999725"
     y2="33.999999795">
    <stop
       offset="0"
       stop-color="#292c2f"
       id="stop1"
       style="stop-color:#0c0d14;stop-opacity:1;" />
    <stop
       offset="1"
       stop-opacity="0"
       id="stop2" />
  </linearGradient>
  <linearGradient
     id="b"
     gradientUnits="userSpaceOnUse"
     x1="44"
     x2="4"
     y1="44"
     y2="4">
    <stop
       offset="0"
       stop-color="#172525"
       id="stop3"
       style="stop-color:#2e3440;stop-opacity:1;" />
    <stop
       offset="1"
       stop-color="#536161"
       id="stop4" />
  </linearGradient>
  <linearGradient
     id="c"
     gradientTransform="matrix(2.0428665 -6.8308524 5.7819337 2.3633129 25.219113 34.652812)"
     gradientUnits="userSpaceOnUse"
     x1="24"
     x2="24"
     y1="35"
     y2="13">
    <stop
       offset="0"
       stop-color="#cd7223"
       id="stop5"
       style="stop-color:#d08770;stop-opacity:1;" />
    <stop
       offset="0.52999997"
       stop-color="#f48e00"
       id="stop6"
       style="stop-color:#d08770;stop-opacity:1;" />
    <stop
       offset="1"
       stop-color="#ffa92d"
       id="stop7"
       style="stop-color:#d08770;stop-opacity:1;" />
  </linearGradient>
  <linearGradient
     id="d"
     gradientUnits="userSpaceOnUse"
     x1="27"
     x2="25.42725"
     y1="28"
     y2="32.71825">
    <stop
       offset="0"
       stop-color="#b1621e"
       id="stop8"
       style="stop-color:#894630;stop-opacity:1;" />
    <stop
       offset="1"
       stop-color="#ffa21d"
       id="stop9"
       style="stop-color:#d08770;stop-opacity:1;" />
  </linearGradient>
  <rect
     fill="url(#b)"
     height="40"
     ry="1"
     width="40"
     x="4"
     y="4"
     id="rect9" />
  <path
     d="m16 35 8 8h20v-18l-12-12v6l-7 2.333333 7 2.333334v6z"
     fill="url(#a)"
     opacity=".4"
     id="path9" />
  <path
     d="m16 29 16-5.333333v6l-16 5.333333z"
     fill="url(#d)"
     id="path10" />
  <path
     d="m4 6v-1c0-.554007.445996-1 1-1h38c.554004 0 1 .445993 1 1v1c0-.554007-.445996-1-1-1h-38c-.554004 0-1 .445993-1 1z"
     fill="#fff"
     opacity=".184"
     id="path11"
     style="fill:#e6e8ed;fill-opacity:1" />
  <path
     d="m4 42v1c0 .554007.445996 1 1 1h38c.554004 0 1-.445993 1-1v-1c0 .554007-.445996 1-1 1h-38c-.554004 0-1-.445993-1-1z"
     opacity=".481"
     id="path12"
     style="fill:#0f1217;fill-opacity:1" />
  <path
     d="m32 13-16 5.333984v6l16 5.332032v-6l-7-2.332032 7-2.333984z"
     fill="url(#c)"
     id="path13" />
</svg>
