<?xml version="1.0" encoding="UTF-8" standalone="no"?>
<!-- Created with Inkscape (http://www.inkscape.org/) -->

<svg
   version="1.1"
   id="svg46"
   width="160"
   height="160"
   viewBox="0 0 160 160"
   sodipodi:docname="hopfen_filled_yellow.svg"
   inkscape:version="1.3 (0e150ed6c4, 2023-07-21)"
   xmlns:inkscape="http://www.inkscape.org/namespaces/inkscape"
   xmlns:sodipodi="http://sodipodi.sourceforge.net/DTD/sodipodi-0.dtd"
   xmlns="http://www.w3.org/2000/svg"
   xmlns:svg="http://www.w3.org/2000/svg">
  <defs
     id="defs50" />
  <sodipodi:namedview
     id="namedview48"
     pagecolor="#ffffff"
     bordercolor="#000000"
     borderopacity="0.25"
     inkscape:showpageshadow="2"
     inkscape:pageopacity="0.0"
     inkscape:pagecheckerboard="0"
     inkscape:deskcolor="#d1d1d1"
     showgrid="false"
     inkscape:zoom="3.663697"
     inkscape:cx="14.602736"
     inkscape:cy="73.150154"
     inkscape:window-width="960"
     inkscape:window-height="1004"
     inkscape:window-x="960"
     inkscape:window-y="0"
     inkscape:window-maximized="0"
     inkscape:current-layer="g52" />
  <g
     inkscape:groupmode="layer"
     inkscape:label="Image"
     id="g52">
    <g
       id="g16"
       style="fill:#ebcb8b;fill-opacity:1">
      <path
         style="fill:#ebcb8b;stroke-width:0.272948;fill-opacity:1"
         d="m 19.536395,57.285436 c 0.84431,-3.587221 6.547271,-19.789844 7.962086,-22.620997 0.957115,-1.915262 4.898041,-5.704575 7.603416,-7.310902 3.932195,-2.334756 11.346426,-4.966852 17.087345,-6.066109 1.245174,-0.238423 2.56176,-0.496644 2.92575,-0.573826 1.138402,-0.24139 0.244267,0.515193 -3.623889,3.066402 -5.697854,3.75797 -9.465045,6.723437 -12.361882,9.731062 -2.933113,3.045286 -6.637134,7.786966 -7.548928,9.663712 -0.5316,1.094192 -0.541672,1.218815 -0.131655,1.628832 0.244193,0.244194 0.629989,0.372613 0.857323,0.285376 0.227335,-0.08724 1.144592,-1.24018 2.038349,-2.562096 1.631223,-2.412671 5.370406,-7.015621 6.70201,-8.250204 1.147574,-1.063962 1.112107,-0.478185 -0.0859,1.418724 -2.108806,3.339057 -4.931241,10.193118 -4.931241,11.975129 0,1.164212 -2.077958,2.570925 -11.054407,7.483501 -5.841748,3.197035 -5.673691,3.13117 -5.438377,2.131396 z"
         id="path1" />
      <path
         style="fill:#ebcb8b;stroke-width:0.272948;fill-opacity:1"
         d="M 39.640759,56.427136 C 38.12138,55.381832 38.899582,48.074537 41.068957,43.0164 44.440894,35.154357 51.476179,27.487357 58.586968,23.925405 c 2.696995,-1.350984 6.382777,-2.810388 6.863794,-2.717752 0.292104,0.05625 -0.860212,1.267464 -3.36607,3.538105 -6.94417,6.292343 -15.137578,15.699763 -15.137578,17.380504 0,0.885521 1.301512,-0.255167 7.657421,-6.711215 7.223738,-7.33755 11.894242,-11.805016 12.341531,-11.805016 0.28308,0 0.281546,0.006 -0.732348,2.873 -1.027852,2.906451 -2.073976,8.524928 -2.347939,12.610196 -0.291882,4.352462 -0.329787,4.431171 -3.729261,7.743736 -4.635438,4.516932 -9.222142,7.33434 -14.417672,8.856136 -2.63884,0.77293 -5.516427,1.120448 -6.078087,0.734037 z"
         id="path2" />
      <path
         style="fill:#ebcb8b;stroke-width:0.272948;fill-opacity:1"
         d="m 76.91895,62.70988 c -4.872392,-4.699848 -7.915987,-10.431597 -9.0782,-17.09622 -0.544695,-3.123508 -0.540261,-8.650651 0.0096,-11.92468 0.477766,-2.844931 2.301267,-8.673199 3.150524,-10.069689 0.521435,-0.857431 0.598789,-0.88834 1.824577,-0.729058 0.704031,0.09148 2.293377,0.247694 3.53188,0.347134 l 2.251824,0.180799 0.01402,12.446845 c 0.01628,14.456083 0.196157,17.122447 1.094509,16.224095 0.511706,-0.511705 0.767974,-5.01455 0.962407,-16.910243 l 0.19235,-11.768251 2.894347,-0.145782 c 1.59189,-0.08018 3.101729,-0.229789 3.355197,-0.332465 0.646682,-0.261961 1.274427,0.562524 2.195472,2.883548 5.260888,13.257383 2.378916,27.737225 -7.324209,36.798875 -1.141057,1.06562 -2.319803,1.937493 -2.619434,1.937493 -0.301962,0 -1.396133,-0.8212 -2.454826,-1.842401 z"
         id="path3" />
      <path
         style="fill:#ebcb8b;stroke-width:0.272948;fill-opacity:1"
         d="m 75.879637,19.924349 c -0.97579,-0.197454 -2.142644,-0.512152 -2.593009,-0.699329 l -0.818845,-0.340323 1.022663,-0.18723 c 1.89529,-0.346991 2.755221,-1.568499 4.153297,-5.89964 0.720674,-2.232596 1.186864,-3.2182264 1.800045,-3.8056903 0.78301,-0.7501712 0.866446,-0.7709212 1.552198,-0.3860186 0.967744,0.5431804 1.600365,1.6889689 2.110153,3.8218569 0.799342,3.344347 1.30671,4.771093 2.114816,5.946982 0.445715,0.648567 0.767845,1.213278 0.715844,1.254914 -0.052,0.04164 -0.977995,0.217245 -2.057763,0.390241 -2.504753,0.401302 -5.734012,0.362643 -7.999399,-0.09576 z"
         id="path4" />
      <path
         style="fill:#ebcb8b;stroke-width:0.272948;fill-opacity:1"
         d="m 111.22645,56.232857 c -4.4048,-0.969682 -9.45229,-3.759923 -13.060672,-7.219904 -2.851771,-2.734489 -2.861623,-2.76551 -3.324645,-10.468232 -0.372309,-6.193648 -0.882173,-10.189708 -1.511227,-11.844245 -0.148388,-0.39029 -0.205152,-0.774264 -0.126143,-0.853273 0.07901,-0.07901 3.806443,3.5 8.283187,7.953356 4.47674,4.453356 8.28843,8.097011 8.47042,8.097011 0.5482,0 0.65115,-0.721329 0.22152,-1.552137 -0.59862,-1.157607 -3.74431,-4.650111 -10.510314,-11.669069 -3.31946,-3.443563 -5.992211,-6.304194 -5.939447,-6.356959 0.278574,-0.278574 6.078225,2.80739 8.078361,4.298451 2.97041,2.214393 7.60921,6.853309 9.82274,9.822991 3.09396,4.150884 5.35356,9.743834 6.05005,14.975081 0.38437,2.88698 0.11977,4.372542 -0.86784,4.872291 -0.85855,0.434447 -3.47901,0.408473 -5.58599,-0.05536 z"
         id="path5" />
      <path
         style="fill:#ebcb8b;stroke-width:0.272948;fill-opacity:1"
         d="m 136.01275,57.001417 c -9.74153,-5.104464 -15.91548,-9.272129 -15.91548,-10.743582 0,-1.314125 -3.37324,-8.685665 -5.16886,-11.295511 -1.6719,-2.430022 -0.4589,-1.477334 7.21597,5.667396 3.00243,2.79504 5.61635,5.083519 5.80872,5.085508 0.54686,0.0057 0.70013,-0.746811 0.33277,-1.633698 -0.50117,-1.209927 -7.22945,-7.614484 -12.08868,-11.507043 -4.70724,-3.770805 -7.92076,-6.103778 -12.39519,-8.99874 -1.62117,-1.048902 -3.07042,-2.037003 -3.22054,-2.195781 -0.36399,-0.384982 1.97716,-0.109323 6.52913,0.76877 11.95577,2.306317 21.22499,7.333435 24.11387,13.078044 1.27509,2.53556 3.07502,7.266588 5.809,15.268662 1.38483,4.053283 2.57562,7.523139 2.64619,7.710791 0.24579,0.653599 -0.73563,0.331138 -3.6669,-1.204816 z"
         id="path6" />
      <path
         style="fill:#ebcb8b;stroke-width:0.272948;fill-opacity:1"
         d="m 128.69514,90.136133 c -4.6474,-3.217796 -8.68275,-7.677756 -11.6371,-12.861582 -2.06015,-3.614823 -3.04742,-6.951499 -3.36051,-11.357528 -0.0907,-1.276033 -0.22738,-3.00969 -0.30379,-3.85257 l -0.13893,-1.532509 2.72215,-0.131081 c 4.07352,-0.196153 4.54831,-0.634005 4.84287,-4.46613 0.17985,-2.339844 0.19347,-2.376405 0.66717,-1.791409 0.26596,0.328451 1.09757,2.159993 1.84801,4.070092 2.1544,5.483565 4.09236,12.486465 5.07774,18.348592 0.50068,2.978599 0.87976,4.094225 1.39119,4.094225 0.59139,0 0.71688,-0.471726 0.69487,-2.612089 -0.0416,-4.046594 -2.08571,-12.282699 -4.99564,-20.128333 -0.60212,-1.623418 -1.04625,-3.000185 -0.98695,-3.059484 0.15822,-0.158217 7.41728,3.823686 9.60303,5.267669 2.17293,1.435515 3.25669,2.936158 3.76481,5.212973 0.22221,0.995744 0.3436,3.837733 0.34536,8.086133 0.002,5.986446 -0.0489,6.715352 -0.5963,8.461399 -0.83676,2.669001 -2.90441,6.180822 -4.84182,8.22366 l -1.63962,1.728844 z"
         id="path7" />
      <path
         style="fill:#ebcb8b;stroke-width:0.272948;fill-opacity:1"
         d="m 94.585141,89.501558 c -4.341079,-4.744022 -6.272017,-8.191463 -7.69491,-13.738259 -0.823219,-3.209116 -1.164679,-8.820471 -0.659637,-10.840097 0.192784,-0.77093 1.064095,-2.417943 2.080943,-3.933543 1.580164,-2.355216 5.554554,-10.141449 5.601923,-10.974735 0.04825,-0.848841 3.031713,7.999134 3.90268,11.574084 0.998194,4.097166 1.476295,7.147288 1.928748,12.304768 0.399702,4.556137 0.666732,5.670664 1.358652,5.670664 0.908,0 1.06253,-0.753561 0.86896,-4.237495 -0.33332,-5.999251 -2.506654,-17.280838 -4.148207,-21.533001 -0.16318,-0.422688 0.03704,-0.358439 1.045773,0.33559 0.686175,0.472101 3.470714,2.040547 6.187854,3.485436 l 4.94026,2.62707 v 5.394747 c 0,7.16018 -0.60039,10.61 -2.66104,15.290236 -0.9454,2.147221 -3.32323,5.59603 -5.19433,7.533851 -1.64605,1.704751 -4.305042,3.932138 -4.694067,3.932138 -0.119758,0 -1.408378,-1.301153 -2.863602,-2.891454 z"
         id="path8" />
      <path
         style="fill:#ebcb8b;stroke-width:0.272948;fill-opacity:1"
         d="m 59.629438,91.548763 c -7.708284,-7.52387 -10.783152,-18.200854 -8.701039,-30.212954 0.589279,-3.399658 0.8242,-3.803945 3.03578,-5.224418 1.069343,-0.686826 3.065863,-1.969682 4.43671,-2.85079 1.370848,-0.881108 2.543955,-1.550509 2.606905,-1.487559 0.06295,0.06295 -0.181649,2.503431 -0.543553,5.423291 -0.361904,2.91986 -0.803109,7.212605 -0.980455,9.539434 -0.310476,4.073522 -0.221317,10.120886 0.168011,11.395694 0.201027,0.65824 1.048847,0.831949 1.387343,0.284251 0.112133,-0.181434 0.299794,-3.209703 0.417025,-6.729484 0.302233,-9.074365 1.550775,-20.789191 2.455926,-23.043474 0.168035,-0.418493 0.432094,-0.718704 0.586798,-0.667136 0.154704,0.05157 0.678935,1.325393 1.164957,2.830721 1.449442,4.48927 3.691059,8.603307 6.671791,12.244727 0.860188,1.050851 1.699825,2.174082 1.865861,2.496069 1.270171,2.463205 0.206753,10.421271 -2.138687,16.004811 -1.695194,4.035566 -5.780112,9.254455 -8.95519,11.441145 l -1.171713,0.806961 z"
         id="path9" />
      <path
         style="fill:#ebcb8b;stroke-width:0.272948;fill-opacity:1"
         d="M 26.534078,89.849373 C 22.702654,85.473324 21.285067,80.966894 21.273003,73.1247 c -0.01121,-7.284595 0.832101,-11.14481 2.856615,-13.076066 0.939197,-0.895934 8.600765,-5.436893 8.813787,-5.223871 0.03455,0.03455 -0.541854,1.672666 -1.280893,3.64026 -2.399879,6.389352 -4.09473,14.011513 -4.09473,18.415001 0,2.366127 0.286838,3.230313 1.072194,3.230313 0.710742,0 0.815111,-0.411952 1.277394,-5.04194 0.225251,-2.256006 0.65914,-5.268684 0.964198,-6.694839 0.690328,-3.22731 3.44099,-11.591173 4.065805,-12.362788 0.452368,-0.55865 0.476148,-0.524529 0.969703,1.391399 l 0.505963,1.964094 h 5.570241 5.570242 l -0.190075,1.705927 c -0.512675,4.601266 -2.477387,11.704056 -4.167429,15.066013 -1.109794,2.207685 -3.424197,5.611516 -5.028994,7.396227 -3.158717,3.512839 -8.042247,7.672883 -9.586386,8.16618 -0.187267,0.05983 -1.112719,-0.773233 -2.05656,-1.851237 z"
         id="path10" />
      <path
         style="fill:#ebcb8b;stroke-width:0.272948;fill-opacity:1"
         d="m 42.852889,119.47882 c -2.999158,-3.08419 -4.875831,-6.04794 -6.564529,-10.36707 -1.67768,-4.29096 -2.247721,-7.17503 -2.279457,-11.53272 -0.03283,-4.508635 5.3e-4,-4.58365 3.661119,-8.231464 1.458053,-1.452965 3.677296,-3.996652 4.931651,-5.652639 1.254355,-1.655987 2.309692,-2.981838 2.345194,-2.946336 0.0355,0.0355 -0.05302,0.858325 -0.196725,1.828497 -0.725676,4.899289 -0.822852,23.149942 -0.129238,24.272232 0.537106,0.86906 0.786503,-1.09842 1.121433,-8.846914 0.456805,-10.568034 1.256158,-18.424707 2.011404,-19.769673 0.291025,-0.518267 0.405747,-0.286598 0.681079,1.375361 0.381238,2.301237 4.813059,10.221729 7.190797,12.8513 1.798593,1.989087 2.558218,3.154753 2.822575,4.331322 0.342775,1.525579 -0.156753,5.918424 -1.016092,8.935514 -0.819476,2.87712 -2.999812,7.47944 -4.617038,9.74578 -1.412258,1.97911 -6.280805,6.67216 -6.922379,6.67286 -0.245732,2.6e-4 -1.613639,-1.19946 -3.039794,-2.66605 z"
         id="path11" />
      <path
         style="fill:#ebcb8b;stroke-width:0.272948;fill-opacity:1"
         d="m 62.419823,138.99894 c -1.258187,-1.2385 -2.800785,-3.01726 -3.427995,-3.95279 -2.432349,-3.62803 -4.347,-8.24877 -5.002932,-12.07387 -0.385241,-2.24655 -0.492536,-1.95164 2.320409,-6.37812 2.035788,-3.20354 3.60244,-7.31065 4.75452,-12.46437 1.080418,-4.833149 1.712245,-6.879821 2.16879,-7.02534 0.814395,-0.25958 0.914996,3.36495 0.22032,7.93782 -1.39296,9.16951 -1.916065,14.34092 -2.185492,21.60576 -0.188358,5.07887 -0.01591,6.41428 0.828303,6.41428 0.873189,0 0.94861,-0.59588 1.779173,-14.05684 0.310431,-5.03115 0.866636,-10.00101 1.394988,-12.46463 l 0.297278,-1.38616 1.676135,3.40374 c 1.884192,3.82624 2.923745,5.27084 6.754284,9.38599 1.472648,1.58207 2.804145,3.27641 2.970225,3.77964 0.802443,2.43142 -2.7306,10.43593 -6.715418,15.21454 -1.465912,1.75793 -4.460944,4.31217 -5.056325,4.31217 -0.268757,0 -1.518076,-1.01332 -2.776263,-2.25182 z"
         id="path12" />
      <path
         style="fill:#ebcb8b;stroke-width:0.272948;fill-opacity:1"
         d="m 77.587397,148.41566 c -2.144274,-2.21336 -5.801985,-6.65014 -5.801985,-7.03778 0,-0.17875 0.66978,-1.23238 1.488399,-2.34141 0.818619,-1.10902 2.323247,-3.39698 3.343617,-5.08434 l 1.855219,-3.06793 0.136474,6.67517 c 0.120214,5.87985 0.193385,6.73203 0.614134,7.15241 0.454753,0.45435 0.500566,0.45435 0.955319,0 0.421097,-0.42072 0.49382,-1.27567 0.614133,-7.21985 l 0.136475,-6.74262 1.335697,2.38177 c 0.734634,1.30997 2.338539,3.70637 3.564234,5.32534 l 2.228535,2.94357 -1.604137,2.04073 c -0.882275,1.12241 -2.056287,2.51693 -2.608914,3.09893 -1.122952,1.18265 -4.05879,3.44546 -4.470234,3.44546 -0.146575,0 -0.950709,-0.70625 -1.786966,-1.56945 z"
         id="path13" />
      <path
         style="fill:#ebcb8b;stroke-width:0.272948;fill-opacity:1"
         d="m 91.528248,139.27189 c -0.903621,-0.78814 -2.010251,-1.86287 -2.459177,-2.3883 -3.046648,-3.56582 -6.325689,-10.26291 -7.199437,-14.70409 l -0.334165,-1.69853 2.84646,-2.78486 c 3.504952,-3.4291 5.075211,-5.59925 7.21225,-9.96755 l 1.657701,-3.38849 0.604148,4.08031 c 0.332281,2.24416 0.958794,7.57052 1.39225,11.83634 0.911088,8.9664 1.302206,11.51057 1.746844,11.36296 0.929318,-0.30852 0.276899,-13.0363 -1.208666,-23.57938 -0.913186,-6.48089 -1.186546,-12.359229 -0.602173,-12.949131 0.837997,-0.845925 2.347732,2.000751 2.978127,5.615401 0.86299,4.94833 2.41337,8.98885 5.2446,13.66821 1.06758,1.76447 2.01609,3.60805 2.10779,4.09683 0.56704,3.02261 -1.8724,10.199 -5.19172,15.27307 -1.203671,1.83998 -6.184912,6.96019 -6.771291,6.96019 -0.209326,0 -1.119919,-0.64484 -2.023541,-1.43298 z"
         id="path14" />
      <path
         style="fill:#ebcb8b;stroke-width:0.272948;fill-opacity:1"
         d="m 110.02186,116.81115 c -4.59044,-4.38568 -7.6371,-10.49682 -8.9098,-17.871743 -0.40043,-2.320348 -0.39566,-2.506449 0.0925,-3.610087 0.2831,-0.639993 1.59654,-2.391558 2.91876,-3.892367 2.64094,-2.997647 5.02824,-6.458033 6.2662,-9.08283 0.44044,-0.933839 0.88611,-1.69789 0.99038,-1.69789 0.52643,0 1.46141,10.344046 1.9934,22.053767 0.37288,8.20755 0.55927,9.2888 1.40399,8.14474 0.20638,-0.2795 0.46363,-1.2007 0.57168,-2.04711 0.23151,-1.81362 -0.24434,-12.29783 -1.00977,-22.247831 -0.29877,-3.883814 -0.50299,-7.182176 -0.45382,-7.329693 0.0492,-0.147516 0.41683,0.327961 0.81701,1.056617 0.974,1.77346 3.43684,4.7286 7.65656,9.187042 l 3.48998,3.68742 -0.55926,3.828079 c -0.92463,6.328926 -2.65812,11.185506 -5.48345,15.362446 -2.20052,3.25324 -5.73764,6.51729 -7.06252,6.51729 -0.33462,0 -1.45285,-0.84544 -2.72187,-2.05785 z"
         id="path15" />
      <path
         style="fill:#ebcb8b;stroke-width:0.272948;fill-opacity:1"
         d="m 76.668515,115.66186 c -3.621608,-3.72869 -5.67959,-6.56884 -6.866393,-9.47608 -1.009592,-2.47313 -2.033478,-6.00388 -2.392139,-8.24901 -0.260051,-1.62785 -0.229875,-1.883715 0.374961,-3.179379 0.361774,-0.774983 1.51918,-2.496425 2.572013,-3.825427 3.448899,-4.353581 6.28265,-10.879202 7.334825,-16.890788 0.256228,-1.463958 0.530391,-2.59722 0.609251,-2.51836 0.07886,0.07886 0.215217,6.864263 0.303015,15.078673 0.159615,14.933571 0.244328,16.163561 1.113225,16.163561 0.795261,0 0.901162,-1.77233 1.055221,-17.659864 0.169173,-17.446223 0.272521,-18.579556 1.361003,-14.925072 0.307688,1.033036 0.819266,3.099554 1.136839,4.592263 1.068233,5.021077 2.825391,9.2296 5.615393,13.449281 2.399206,3.628629 2.644738,4.36446 2.478189,7.426855 -0.293831,5.402777 -3.273665,12.729517 -7.112718,17.488577 -1.523828,1.889 -4.544929,4.36717 -5.323959,4.36717 -0.258079,0 -1.274506,-0.82908 -2.258726,-1.8424 z"
         id="path16" />
    </g>
  </g>
</svg>
