<?xml version="1.0" encoding="UTF-8" standalone="no"?>
<!-- Uploaded to: SVG Repo, www.svgrepo.com, Generator: SVG Repo Mixer Tools -->

<svg
   fill="#000000"
   height="800px"
   width="800px"
   version="1.1"
   id="Layer_1"
   viewBox="0 0 512 512"
   xml:space="preserve"
   sodipodi:docname="cs-themes.svg"
   inkscape:version="1.3 (0e150ed6c4, 2023-07-21)"
   xmlns:inkscape="http://www.inkscape.org/namespaces/inkscape"
   xmlns:sodipodi="http://sodipodi.sourceforge.net/DTD/sodipodi-0.dtd"
   xmlns="http://www.w3.org/2000/svg"
   xmlns:svg="http://www.w3.org/2000/svg"><defs
   id="defs4"><inkscape:perspective
     sodipodi:type="inkscape:persp3d"
     inkscape:vp_x="0 : 256 : 1"
     inkscape:vp_y="0 : 1000 : 0"
     inkscape:vp_z="512 : 256 : 1"
     inkscape:persp3d-origin="256 : 170.66667 : 1"
     id="perspective5" /></defs><sodipodi:namedview
   id="namedview4"
   pagecolor="#ffffff"
   bordercolor="#000000"
   borderopacity="0.25"
   inkscape:showpageshadow="2"
   inkscape:pageopacity="0.0"
   inkscape:pagecheckerboard="0"
   inkscape:deskcolor="#d1d1d1"
   inkscape:zoom="1.01"
   inkscape:cx="396.53465"
   inkscape:cy="424.75248"
   inkscape:window-width="1287"
   inkscape:window-height="1004"
   inkscape:window-x="633"
   inkscape:window-y="0"
   inkscape:window-maximized="0"
   inkscape:current-layer="Layer_1" />&#10;<rect
   style="fill:#eceff4;fill-opacity:1;stroke-width:0.64"
   id="rect4"
   width="393.18747"
   height="394.9566"
   x="15.609296"
   y="99.367668"
   ry="0" /><g
   id="g2">&#10;	<g
   id="g1">&#10;		<path
   style="fill:#88c0d0;fill-opacity:1;stroke-width:0.64"
   d="m 80.66944,243.89929 267.95989,1.25029 0.10922,-80.1403 -271.301628,0.92099 z"
   id="path13" /><path
   style="fill:#bf616a;fill-opacity:1;stroke-width:0.64"
   d="m 246.00511,288.40993 92.89982,-1.32477 -20.87144,57.93042 -29.86355,4.14535 -18.70568,28.08389 -23.07495,20.48221 z"
   id="path15" /><path
   style="fill:#ebcb8b;fill-opacity:1;stroke-width:0.64"
   d="m 236.03697,438.22966 c 25.45448,-43.7155 45.13003,-85.34793 45.13003,-85.34793 l 48.43479,3.87202 28.34252,18.17284 -10.91538,26.22297 -21.96426,46.1501 -42.40946,2.98526 z"
   id="path10" /><path
   style="fill:#e5e9f0;fill-opacity:1;stroke-width:0.64"
   d="m 319.31795,344.28794 24.38985,19.1161 44.86595,-82.69403 -31.45409,-19.25851 z"
   id="path12" /><path
   style="fill:#d08770;fill-opacity:1;stroke-width:0.64"
   d="m 354.89558,258.28361 34.07224,14.39002 116.42273,-239.818297 -23.3897,-21.761931 -22.77212,2.463277 z"
   id="path11" /><path
   d="M475.691,0.021c-14.656,0-27.776,8.725-33.451,22.251l-32.64,77.973c-9.728-9.152-22.421-14.933-36.267-14.933h-320    C23.936,85.312,0,109.248,0,138.645v320c0,29.397,23.936,53.333,53.333,53.333h320c29.397,0,53.333-23.936,53.333-53.333V225.152    l81.92-172.821c2.24-4.757,3.413-10.048,3.413-16.043C512,16.299,495.701,0.021,475.691,0.021z M405.333,458.645    c0,17.643-14.357,32-32,32h-320c-17.643,0-32-14.357-32-32v-320c0-17.643,14.357-32,32-32h320    c11.243,0,21.312,6.101,27.072,15.573l-37.739,90.197v-52.437c0-5.888-4.779-10.667-10.667-10.667H74.667    c-5.888,0-10.667,4.779-10.667,10.667v85.333c0,5.888,4.779,10.667,10.667,10.667h269.76l-8.939,21.333h-90.155    c-5.888,0-10.667,4.779-10.667,10.667v128c0,0.277,0.128,0.512,0.149,0.789c-8.768,7.787-14.144,10.389-14.528,10.539    c-3.371,1.259-5.888,4.096-6.699,7.616c-0.811,3.584,0.256,7.339,2.859,9.941c15.445,15.445,36.757,21.333,57.6,21.333    c26.645,0,52.48-9.643,64.128-21.333c16.768-16.768,29.056-50.005,19.776-74.773l47.381-99.925V458.645z M270.635,397.525    c2.944-9.685,5.739-18.859,14.229-27.349c15.083-15.083,33.835-15.083,48.917,0c13.504,13.504,3.2,45.717-10.667,59.584    c-11.563,11.541-52.672,22.677-80.256,8.256c3.669-2.859,7.893-6.549,12.672-11.328    C264.448,417.749,267.605,407.467,270.635,397.525z M256,375.339v-76.672h70.571l-16.363,39.083    c-14.251-0.256-28.565,5.483-40.448,17.387C263.125,361.771,259.008,368.661,256,375.339z M331.264,342.741l28.715-68.629    l16.128,7.915l-32.555,68.651C339.605,347.477,335.531,344.747,331.264,342.741z M341.333,170.645v64h-256v-64H341.333z     M489.28,43.243l-104.064,219.52l-17.003-8.341l54.08-129.237l39.616-94.677c2.325-5.568,7.744-9.152,13.803-9.152    c8.235,0,14.933,6.699,14.933,15.659C490.645,39.147,490.176,41.344,489.28,43.243z"
   id="path1" />&#10;	<path
   style="fill:#a3be8c;fill-opacity:1;stroke-width:0.64"
   d="m 75.728147,287.91472 100.707923,3.4532 1.85508,149.04073 -102.087252,-2.74501 z"
   id="path14" /></g>&#10;</g>&#10;<g
   id="g4">&#10;	<g
   id="g3">&#10;		<path
   d="M181.333,277.312H74.667c-5.888,0-10.667,4.779-10.667,10.667v149.333c0,5.888,4.779,10.667,10.667,10.667h106.667    c5.888,0,10.667-4.779,10.667-10.667V287.979C192,282.091,187.221,277.312,181.333,277.312z M170.667,426.645H85.333v-128h85.333    V426.645z"
   id="path2"
   style="fill:#000000;fill-opacity:1" />&#10;	</g>&#10;</g>&#10;</svg>
